<svg width="175" height="48" viewBox="0 0 175 48" fill="none" xmlns="http://www.w3.org/2000/svg">
<path d="M8.1654 47.3583H0V0.641711H8.1654V47.3583Z" fill="#FF9500"/>
<path d="M54.7749 47.3583H46.5459L26.1483 14.4385V47.3583H17.9512V0.641711H26.1483L46.6095 33.6257V0.641711H54.7749V47.3583Z" fill="#FF9500"/>
<path d="M88.3896 35.2941C88.3896 34.0321 88.1249 32.9626 87.5953 32.0856C87.087 31.1872 86.1232 30.3636 84.7041 29.615C83.2849 28.8449 81.2409 28.0428 78.5721 27.2086C76.3904 26.5455 74.3676 25.7861 72.5036 24.9305C70.6609 24.0749 69.0511 23.0909 67.6743 21.9786C66.2975 20.8449 65.2173 19.5401 64.4336 18.0642C63.671 16.5668 63.2898 14.8449 63.2898 12.8984C63.2898 10.3529 63.9887 8.11765 65.3867 6.19251C66.7847 4.24599 68.7228 2.72727 71.201 1.63636C73.6792 0.545455 76.5493 0 79.8112 0C83.2849 0 86.2715 0.641711 88.7709 1.92513C91.2703 3.18717 93.1872 4.8984 94.5216 7.05882C95.8772 9.21925 96.555 11.6257 96.555 14.2781H88.3578C88.3578 12.8021 88.0401 11.4866 87.4047 10.3316C86.7904 9.15508 85.8479 8.24599 84.577 7.60428C83.3061 6.94118 81.6857 6.60963 79.7159 6.60963C77.8731 6.60963 76.3375 6.8877 75.1089 7.44385C73.8804 8 72.9696 8.74866 72.3765 9.68984C71.7835 10.631 71.4869 11.7005 71.4869 12.8984C71.4869 14.0321 71.847 15.0374 72.5672 15.9144C73.2873 16.7914 74.3782 17.5936 75.8397 18.3209C77.3012 19.0267 79.1228 19.7112 81.3045 20.3743C84.7358 21.3797 87.5847 22.5561 89.8511 23.9037C92.1175 25.2513 93.8014 26.8449 94.9029 28.6845C96.0255 30.5241 96.5868 32.7059 96.5868 35.2299C96.5868 37.861 95.909 40.139 94.5534 42.0642C93.1978 43.9679 91.2809 45.4332 88.8027 46.4599C86.3244 47.4866 83.412 48 80.0654 48C77.8413 48 75.6491 47.7005 73.4886 47.1016C71.3281 46.4813 69.3688 45.5615 67.6108 44.3422C65.8739 43.1016 64.4759 41.5508 63.4169 39.6898C62.379 37.8289 61.86 35.6364 61.86 33.1123H70.0572C70.0572 34.6096 70.3114 35.8824 70.8197 36.9305C71.3281 37.9786 72.0376 38.8449 72.9484 39.5294C73.8592 40.1925 74.9183 40.6738 76.1256 40.9733C77.3542 41.2727 78.6674 41.4225 80.0654 41.4225C81.9081 41.4225 83.4438 41.1658 84.6723 40.6524C85.9008 40.1176 86.8222 39.3904 87.4365 38.4706C88.0719 37.5508 88.3896 36.492 88.3896 35.2941Z" fill="#FF9500"/>
<path d="M133.951 47.3583H109.518V40.7166H133.951V47.3583ZM111.806 47.3583H103.608V0.641711H111.806V47.3583ZM130.742 26.5668H109.518V20.0214H130.742V26.5668ZM133.792 7.31551H109.518V0.641711H133.792V7.31551Z" fill="#FF9500"/>
<path d="M146.119 30.1283V23.4545H158.066C160.141 23.4545 161.804 23.123 163.054 22.4599C164.325 21.7968 165.257 20.877 165.85 19.7005C166.443 18.5241 166.739 17.1765 166.739 15.6578C166.739 14.2032 166.443 12.8449 165.85 11.5829C165.257 10.3209 164.325 9.29412 163.054 8.50267C161.804 7.71123 160.141 7.31551 158.066 7.31551H148.597V47.3583H140.4V0.641711H158.066C161.666 0.641711 164.727 1.28342 167.248 2.56684C169.768 3.85027 171.685 5.61497 172.998 7.86096C174.333 10.107 175 12.6845 175 15.5936C175 18.6096 174.333 21.2086 172.998 23.3904C171.685 25.5508 169.768 27.2193 167.248 28.3957C164.727 29.5508 161.666 30.1283 158.066 30.1283H146.119Z" fill="#FF9500"/>
</svg>
