<svg width="171" height="46" viewBox="0 0 171 46" fill="none" xmlns="http://www.w3.org/2000/svg">
<g clip-path="url(#clip0_416_331)">
<path d="M45.2096 12.5992C44.9773 12.6886 44.745 12.7779 44.334 12.9566C47.1216 14.0289 49.4804 15.4586 51.4639 17.4423C50.8206 18.318 50.0701 18.3358 49.2302 17.4959C48.6763 16.9419 48.1223 16.6023 47.4969 17.21C48.1223 18.0499 48.8014 18.8005 49.3017 19.6583C49.9093 20.6948 49.6591 22.1066 48.8192 22.9644C48.6763 23.1253 48.3546 23.2325 48.1402 23.1789C46.4783 22.8036 45.0131 23.2682 43.6371 24.1439C42.5471 24.8409 41.5106 24.6443 40.2062 24.0903C41.2783 23.5542 42.1718 23.1074 43.0653 22.6606C43.0474 22.6249 43.0474 22.5891 43.0295 22.5534C42.2433 22.75 41.457 22.9644 40.6708 23.161C40.635 23.0895 40.5993 23.0359 40.5636 22.9644C41.3677 22.3032 42.1897 21.642 43.1368 20.8556C42.4935 21.0165 41.9574 21.1594 41.4213 21.3024C41.3677 21.2309 41.3141 21.1773 41.2426 21.1058C42.011 20.3552 42.7615 19.6047 43.512 18.8541C41.9931 19.1221 40.8673 20.0336 40.0096 21.3024C39.3306 22.3211 38.7409 23.3755 38.0797 24.3941C36.7395 26.4493 34.8632 27.8611 32.6117 28.8082C30.646 29.6303 28.5732 30.1128 26.3753 30.2201C28.2158 28.701 30.0564 27.182 32.0041 25.5736C31.7003 25.4306 31.468 25.3055 31.2536 25.2162C30.4316 24.8945 29.5739 24.6086 28.7698 24.2333C26.4825 23.161 25.6426 21.5705 25.9643 18.9077C26.6433 19.2651 27.2687 19.5868 28.0192 19.98C28.0014 17.9427 28.5911 16.1734 29.6454 14.5472C29.824 14.2791 29.7704 13.8502 29.7883 13.5107C29.9849 10.1152 31.7182 8.50677 35.0955 8.56038C37.0254 8.57825 38.7766 9.09651 40.2777 10.3654C40.6529 10.687 41.2247 10.8121 41.7072 10.9372C42.5113 11.1517 43.3512 11.241 44.1196 11.5091C44.5484 11.6521 44.9058 12.0274 45.2811 12.3133C45.299 12.4205 45.2454 12.5099 45.2096 12.5992ZM40.921 12.903C40.8316 13.3498 40.4564 13.1711 39.956 13.0281C39.545 12.903 39.0625 13.046 38.6158 13.0639C38.7588 13.4392 38.9196 13.8323 39.0625 14.2076C39.0804 14.2434 39.0268 14.297 38.9553 14.5293C38.4192 14.1361 37.9368 13.7608 37.4186 13.3677C37.3828 13.3856 37.2577 13.4034 37.1684 13.4749C36.9003 13.6894 36.668 13.9217 36.4179 14.154C36.6502 14.4042 36.8467 14.708 37.1326 14.8688C38.2048 15.5122 39.3842 15.6909 40.5636 15.2978C41.5643 14.9582 42.3326 15.262 43.1368 15.816C43.6728 16.1913 44.334 16.4058 45.1381 16.7989C43.6014 15.3692 42.279 14.1361 40.921 12.903Z" fill="#FF9500"/>
<path d="M20.8715 21.7312C21.9973 24.7157 21.5506 27.4857 19.9244 30.1842C20.8537 29.6123 21.8007 29.0583 22.8729 28.415C22.8014 29.791 22.2296 30.7203 21.4255 31.4709C18.5306 34.1873 15.0282 35.3132 10.7932 35.2596C11.7581 34.1694 12.5622 33.258 13.4021 32.3287C12.2942 32.6325 11.2578 33.0257 10.1856 33.2044C9.32788 33.3474 8.39867 33.3116 7.52307 33.1865C4.93201 32.8112 2.64472 33.4725 0.553999 34.9736C0.428913 35.063 0.303827 35.1345 0.178741 35.2238C0.107264 35.1523 0.0536554 35.0987 -0.0178223 35.0272C0.893518 34.1516 1.75125 33.1865 2.73407 32.4002C3.73476 31.596 4.8784 30.9884 6.11139 30.1842C4.96774 30.4344 3.98493 30.631 2.82342 30.8812C3.57393 29.7017 4.50314 29.0404 5.62891 28.7903C7.12994 28.4507 8.66671 28.3077 10.1856 28.0933C11.5973 27.8967 13.0269 27.8252 14.4207 27.5393C17.2619 26.9495 19.2454 25.2518 20.4427 22.6069C20.6035 22.3209 20.7464 22.035 20.8715 21.7312Z" fill="#FF9500"/>
<path d="M20.5856 9.57881C20.4783 9.98984 20.389 10.4009 20.2639 10.9191C21.6577 10.8476 22.4082 10.0971 23.1052 9.06055C23.0873 9.34648 23.1052 9.65029 23.0694 9.93623C22.6227 12.9207 20.389 15.0295 17.0117 15.5835C15.6357 15.8158 14.2419 15.9409 12.866 16.1017C10.3107 16.3877 8.18419 17.3884 6.87972 19.7295C6.84398 19.801 6.75464 19.8189 6.52233 19.9976C6.52233 19.1398 6.39725 18.4071 6.5402 17.728C7.29072 14.118 11.49 10.7047 15.1711 10.6332C15.9038 10.6153 16.6543 10.6511 17.4048 10.6868C18.5842 10.7404 19.71 10.5975 20.5856 9.57881Z" fill="#FF9500"/>
<path d="M40.3492 7.70246C40.5457 8.14923 40.7244 8.61388 40.921 9.06065C38.2942 7.57736 35.5602 6.59445 32.433 7.02336C32.4509 6.77316 32.4688 6.61232 32.4866 6.45149C32.5045 6.30852 32.5224 6.16555 32.5581 5.87961C31.4323 6.79103 30.3066 7.38078 28.9127 6.95187C30.0921 3.86019 29.4488 2.09096 27.376 0.214501C27.3938 0.143017 27.4296 0.0536618 27.4475 -0.0178223C28.4481 0.303856 29.5203 0.518308 30.4495 1.00083C31.4323 1.51909 32.3615 2.21605 33.1478 3.00238C33.9162 3.75296 34.4701 4.718 35.0956 5.57581C35.6674 4.12825 35.2207 3.02025 33.4337 1.39399C37.2756 2.21605 41.0461 4.91458 43.6014 10.1687C42.565 9.31085 41.5464 8.45304 40.51 7.57736C40.4385 7.63097 40.4028 7.66671 40.3492 7.70246Z" fill="#FF9500"/>
<path d="M20.818 37.5292C20.264 38.4764 19.7279 39.4235 19.1561 40.3886C21.5327 40.6209 24.6956 38.6014 27.7156 34.8843C27.6619 35.2417 27.6441 35.4562 27.5905 35.6527C26.9114 38.0296 25.607 40.0133 23.7485 41.6217C22.4083 42.7833 20.818 43.2837 19.0846 43.3909C14.796 43.6768 9.07775 41.4608 6.16504 38.244C8.7561 39.2984 11.1327 40.192 13.7417 40.2277C16.4757 40.2635 18.763 39.2091 20.818 37.5292Z" fill="#FF9500"/>
<path d="M35.1313 32.436C37.4365 36.5285 35.6138 42.8548 31.5217 45.0172C31.8076 44.0701 32.0578 43.2123 32.3258 42.3366C30.6997 43.1229 29.1629 43.9628 27.5547 44.5883C25.9286 45.2138 24.231 45.6248 22.5155 46.0001C26.0894 43.6412 29.0378 40.7103 31.4323 37.1897C31.2715 38.1011 31.1107 39.0304 30.932 39.9776C33.2908 38.0297 34.488 35.8673 35.1313 32.436Z" fill="#FF9500"/>
<path d="M2.18018 26.3419C4.46746 22.4817 14.2778 18.4786 18.2626 19.5151C16.2613 20.9091 14.1169 22.3566 11.9369 23.8578C12.9912 24.4297 14.1348 25.0552 15.2606 25.6628C10.9005 25.3947 6.57605 25.4305 2.18018 26.3419Z" fill="#FF9500"/>
<path d="M17.1369 3.12746C20.0496 0.768483 24.5705 1.21526 27.2867 4.03888C28.198 4.96817 28.2516 5.09327 28.1087 5.91534C25.3925 4.55714 24.2132 4.43204 22.4977 5.39708C23.1231 5.6294 23.6592 5.84385 24.1417 6.02256C22.873 6.41572 21.5685 6.66592 20.407 7.21992C18.4056 8.16708 16.1362 7.16631 15.6001 4.8252C17.3692 5.21837 19.0668 5.2005 20.9073 4.2712C19.5314 3.8423 18.3877 3.50275 17.1369 3.12746Z" fill="#FF9500"/>
<path d="M39.0804 37.2074C41.0103 35.599 41.0103 35.599 40.4564 34.9199C40.7959 34.6519 41.1354 34.3838 41.5643 34.0621C40.1347 32.972 39.4378 31.6317 40.0275 29.6301C41.8145 32.3465 44.4055 32.2393 47.1574 32.0785C47.2289 33.5439 46.7286 34.8306 45.6564 35.8492C43.7622 37.6542 41.4213 37.4934 39.0804 37.2074Z" fill="#FF9500"/>
<path d="M29.9671 9.59675C27.9299 8.75681 27.1616 8.91765 25.9107 10.4367C26.4289 10.3831 26.822 10.3473 27.3581 10.2937C25.9464 11.8664 25.6427 13.5462 26.4289 15.4227C25.5354 15.1368 24.7671 14.2611 24.4097 13.1173C23.9451 11.5447 24.1774 10.0435 25.1066 8.7032C26.2681 7.00545 27.9299 6.96971 29.2344 8.52449C29.4846 8.79256 29.6454 9.11423 29.9671 9.59675Z" fill="#FF9500"/>
<path d="M50.6956 24.966C50.2668 25.6093 49.8915 26.1633 49.5163 26.7173C49.4448 26.6816 49.3733 26.6458 49.3018 26.628C49.3018 26.0561 49.3018 25.4842 49.3018 24.966C48.0331 25.0374 46.818 25.1089 45.5671 25.1804C45.4063 25.6629 45.2097 26.2348 44.9953 26.8603C44.3163 26.5207 43.9946 25.9489 44.1554 25.3412C44.2448 25.0017 44.7451 24.6621 45.1382 24.5192C46.9788 23.8222 48.7836 23.9473 50.6956 24.966Z" fill="#FF9500"/>
<path d="M51.732 19.0327C52.2503 21.0879 52.1609 22.8214 50.5527 24.3225C50.1953 24.1081 49.8021 23.84 49.5162 23.6613C49.8021 22.6069 49.9808 21.624 50.374 20.7126C50.6063 20.1586 51.1781 19.6939 51.732 19.0327Z" fill="#FF9500"/>
<path d="M42.9224 29.5051C43.244 30.0055 43.5121 30.4344 43.7623 30.8276C44.3341 30.8633 44.9059 30.8097 45.4062 30.9527C46.1746 31.1671 46.7643 31.042 47.1932 30.1842C47.3897 31.4531 47.1574 31.739 46.1389 31.6854C45.4062 31.6496 44.6557 31.596 43.9231 31.5782C42.6186 31.5067 42.2612 30.8812 42.9224 29.5051Z" fill="#FF9500"/>
<path d="M42.0468 25.2339C41.4929 26.3061 40.9032 27.4499 40.3671 28.5043C39.7595 27.5035 40.6172 25.7343 42.0468 25.2339Z" fill="#FF9500"/>
<path d="M46.5499 28.9333C47.0145 28.2721 47.4255 27.7181 47.8187 27.1641C47.9437 28.004 47.6578 28.4508 46.5499 28.9333Z" fill="#FF9500"/>
</g>
<path d="M73.8202 36.5858H69.064V9.37379H73.8202V36.5858Z" fill="#FF9500"/>
<path d="M100.97 36.5858H96.1766L84.2951 17.4103V36.5858H79.5204V9.37379H84.2951L96.2136 28.5867V9.37379H100.97V36.5858Z" fill="#FF9500"/>
<path d="M120.55 29.5585C120.55 28.8234 120.396 28.2004 120.087 27.6896C119.791 27.1663 119.23 26.6866 118.403 26.2505C117.577 25.8019 116.386 25.3347 114.832 24.8488C113.561 24.4625 112.382 24.0202 111.297 23.5218C110.223 23.0234 109.286 22.4503 108.484 21.8024C107.682 21.142 107.052 20.3819 106.596 19.5222C106.152 18.65 105.93 17.647 105.93 16.5132C105.93 15.0305 106.337 13.7285 107.151 12.6071C107.965 11.4733 109.094 10.5886 110.538 9.95317C111.981 9.31772 113.653 9 115.553 9C117.577 9 119.316 9.37379 120.772 10.1214C122.228 10.8565 123.345 11.8533 124.122 13.1117C124.912 14.3701 125.306 15.7719 125.306 17.3169H120.532C120.532 16.4571 120.347 15.6909 119.976 15.018C119.619 14.3328 119.07 13.8032 118.329 13.4294C117.589 13.0432 116.645 12.8501 115.498 12.8501C114.424 12.8501 113.53 13.012 112.814 13.336C112.099 13.6599 111.568 14.096 111.223 14.6442C110.877 15.1925 110.704 15.8155 110.704 16.5132C110.704 17.1736 110.914 17.7592 111.334 18.27C111.753 18.7809 112.389 19.2481 113.24 19.6717C114.091 20.0829 115.152 20.4816 116.423 20.8679C118.422 21.4535 120.081 22.1388 121.401 22.9237C122.722 23.7087 123.703 24.6369 124.344 25.7085C124.998 26.78 125.325 28.0509 125.325 29.5211C125.325 31.0537 124.93 32.3807 124.141 33.502C123.351 34.6109 122.234 35.4644 120.791 36.0625C119.347 36.6606 117.651 36.9596 115.701 36.9596C114.406 36.9596 113.129 36.7852 111.87 36.4363C110.612 36.075 109.471 35.5392 108.447 34.829C107.435 34.1063 106.621 33.203 106.004 32.119C105.399 31.035 105.097 29.7579 105.097 28.2876H109.872C109.872 29.1598 110.02 29.9012 110.316 30.5117C110.612 31.1222 111.025 31.6268 111.556 32.0255C112.086 32.4118 112.703 32.6921 113.407 32.8666C114.122 33.041 114.887 33.1282 115.701 33.1282C116.775 33.1282 117.669 32.9787 118.385 32.6797C119.1 32.3682 119.637 31.9446 119.995 31.4088C120.365 30.873 120.55 30.2563 120.55 29.5585Z" fill="#FF9500"/>
<path d="M147.089 36.5858H132.857V32.7171H147.089V36.5858ZM134.19 36.5858H129.415V9.37379H134.19V36.5858ZM145.22 24.475H132.857V20.6623H145.22V24.475ZM146.997 13.2612H132.857V9.37379H146.997V13.2612Z" fill="#FF9500"/>
<path d="M154.177 26.5495V22.6621H161.136C162.345 22.6621 163.313 22.4689 164.041 22.0827C164.782 21.6964 165.325 21.1607 165.67 20.4754C166.015 19.7901 166.188 19.0051 166.188 18.1205C166.188 17.2732 166.015 16.4821 165.67 15.7469C165.325 15.0118 164.782 14.4137 164.041 13.9527C163.313 13.4917 162.345 13.2612 161.136 13.2612H155.621V36.5858H150.846V9.37379H161.136C163.233 9.37379 165.016 9.74758 166.484 10.4952C167.953 11.2427 169.069 12.2707 169.834 13.5789C170.611 14.8872 171 16.3886 171 18.0831C171 19.8399 170.611 21.3538 169.834 22.6247C169.069 23.8831 167.953 24.855 166.484 25.5403C165.016 26.2131 163.233 26.5495 161.136 26.5495H154.177Z" fill="#FF9500"/>
<defs>
<clipPath id="clip0_416_331">
<rect width="52" height="46" fill="white"/>
</clipPath>
</defs>
</svg>
