<svg width="99" height="87" viewBox="0 0 99 87" fill="none" xmlns="http://www.w3.org/2000/svg">
<g clip-path="url(#clip0_416_139)">
<path d="M86.0721 23.8286C85.6299 23.9976 85.1876 24.1666 84.4051 24.5046C89.7123 26.5326 94.2031 29.2366 97.9793 32.9883C96.7546 34.6445 95.3257 34.6783 93.7268 33.0897C92.6721 32.0419 91.6175 31.3997 90.4268 32.5489C91.6175 34.1375 92.9103 35.5571 93.8629 37.1795C95.0196 39.1398 94.5433 41.81 92.9443 43.4324C92.6721 43.7366 92.0598 43.9394 91.6515 43.838C88.4876 43.1282 85.6979 44.007 83.0783 45.6631C81.0031 46.9813 79.0299 46.6095 76.5464 45.5617C78.5876 44.5478 80.2886 43.7028 81.9897 42.8578C81.9556 42.7902 81.9556 42.7226 81.9216 42.655C80.4247 43.0268 78.9278 43.4324 77.4309 43.8042C77.3629 43.669 77.2948 43.5676 77.2268 43.4324C78.7577 42.1818 80.3226 40.9312 82.1257 39.444C80.901 39.7482 79.8804 40.0186 78.8598 40.289C78.7577 40.1538 78.6556 40.0524 78.5196 39.9172C79.9824 38.4976 81.4113 37.0781 82.8402 35.6585C79.9484 36.1655 77.8051 37.8893 76.1721 40.289C74.8793 42.2156 73.7567 44.2098 72.4979 46.1363C69.9464 50.0233 66.3742 52.6934 62.0876 54.4848C58.3453 56.0396 54.3989 56.9522 50.2144 57.155C53.7185 54.282 57.2227 51.4091 60.9309 48.3671C60.3525 48.0967 59.9103 47.8601 59.502 47.6911C57.9371 47.0827 56.3041 46.5419 54.7732 45.8321C50.4185 43.8042 48.8196 40.796 49.4319 35.7599C50.7247 36.4359 51.9154 37.0443 53.3443 37.7879C53.3103 33.9347 54.433 30.5886 56.4402 27.5128C56.7804 27.0058 56.6783 26.1946 56.7123 25.5524C57.0866 19.1305 60.3866 16.0886 66.8165 16.19C70.4907 16.2238 73.8247 17.2039 76.6824 19.6037C77.3969 20.2121 78.4855 20.4487 79.4041 20.6853C80.935 21.0909 82.534 21.2599 83.9969 21.7669C84.8134 22.0373 85.4938 22.7471 86.2082 23.2879C86.2422 23.4907 86.1402 23.6596 86.0721 23.8286ZM77.9072 24.4032C77.7371 25.2482 77.0227 24.9102 76.0701 24.6398C75.2876 24.4032 74.369 24.6736 73.5185 24.7074C73.7907 25.4172 74.0969 26.1608 74.369 26.8706C74.4031 26.9382 74.301 27.0396 74.1649 27.479C73.1443 26.7354 72.2257 26.0256 71.2391 25.282C71.1711 25.3158 70.933 25.3496 70.7629 25.4848C70.2525 25.8904 69.8103 26.3298 69.334 26.7692C69.7763 27.2424 70.1505 27.817 70.6948 28.1212C72.7361 29.338 74.9814 29.676 77.2268 28.9324C79.1319 28.2902 80.5948 28.8648 82.1257 29.9126C83.1464 30.6224 84.4051 31.0279 85.9361 31.7715C83.0103 29.0676 80.4928 26.7354 77.9072 24.4032Z" fill="#FF9500"/>
<path d="M39.736 41.1006C41.8793 46.7451 41.0288 51.984 37.933 57.0878C39.702 56.0062 41.5051 54.9584 43.5464 53.7416C43.4103 56.3442 42.3216 58.1018 40.7907 59.5213C35.2793 64.6589 28.6113 66.7882 20.5484 66.6868C22.3855 64.6251 23.9165 62.9013 25.5154 61.1437C23.4061 61.7183 21.433 62.4619 19.3917 62.7999C17.7587 63.0703 15.9897 63.0027 14.3226 62.7661C9.38965 62.0563 5.03501 63.3069 1.0546 66.146C0.816458 66.315 0.578314 66.4502 0.340169 66.6192C0.204087 66.484 0.102025 66.3826 -0.0340576 66.2474C1.70099 64.5913 3.33398 62.7661 5.20512 61.2789C7.11027 59.7579 9.28759 58.6087 11.635 57.0878C9.45769 57.561 7.58656 57.9328 5.37522 58.4059C6.80409 56.1752 8.57316 54.9246 10.7165 54.4514C13.5742 53.8092 16.5 53.5388 19.3917 53.1332C22.0793 52.7614 24.801 52.6262 27.4546 52.0854C32.8639 50.9701 36.6402 47.7591 38.9195 42.7568C39.2257 42.216 39.4979 41.6752 39.736 41.1006Z" fill="#FF9500"/>
<path d="M39.1917 18.1164C38.9876 18.8938 38.8175 19.6712 38.5793 20.6514C41.2329 20.5162 42.6618 19.0966 43.9886 17.1362C43.9546 17.677 43.9886 18.2516 43.9206 18.7924C43.0701 24.4369 38.8175 28.4253 32.3876 29.4731C29.768 29.9125 27.1144 30.1491 24.4948 30.4532C19.6299 30.994 15.5814 32.8868 13.0979 37.3146C13.0299 37.4498 12.8598 37.4836 12.4175 37.8215C12.4175 36.1992 12.1793 34.8134 12.4515 33.529C13.8804 26.7015 21.8752 20.2458 28.8835 20.1106C30.2783 20.0768 31.7072 20.1444 33.136 20.212C35.3814 20.3134 37.5247 20.043 39.1917 18.1164Z" fill="#FF9500"/>
<path d="M76.8185 14.5677C77.1927 15.4127 77.5329 16.2915 77.9071 17.1365C72.9061 14.3311 67.701 12.4721 61.7473 13.2833C61.7814 12.8101 61.8154 12.5059 61.8494 12.2017C61.8834 11.9313 61.9174 11.6609 61.9855 11.1202C59.8422 12.8439 57.6989 13.9593 55.0453 13.1481C57.2906 7.30081 56.0659 3.95465 52.1195 0.405703C52.1535 0.270504 52.2216 0.101507 52.2556 -0.0336914C54.1607 0.5747 56.202 0.980294 57.9711 1.89288C59.8422 2.87307 61.6113 4.19125 63.1082 5.67843C64.5711 7.09801 65.6257 8.92318 66.8164 10.5456C67.9051 7.8078 67.0546 5.71223 63.6525 2.63647C70.9669 4.19125 78.1453 9.29498 83.0102 19.232C81.037 17.6097 79.0979 15.9873 77.1247 14.3311C76.9886 14.4325 76.9205 14.5001 76.8185 14.5677Z" fill="#FF9500"/>
<path d="M39.634 70.9789C38.5793 72.7703 37.5587 74.5616 36.4701 76.3868C40.9948 76.8262 47.0164 73.0069 52.7659 65.9766C52.6639 66.6526 52.6298 67.0581 52.5278 67.4299C51.235 71.9253 48.7515 75.677 45.2133 78.719C42.6618 80.916 39.634 81.8623 36.334 82.0651C28.169 82.6059 17.2824 78.4148 11.7371 72.3309C16.6701 74.325 21.1948 76.015 26.1618 76.0826C31.367 76.1502 35.7216 74.1561 39.634 70.9789Z" fill="#FF9500"/>
<path d="M66.8845 61.3462C71.2732 69.0863 67.8031 81.0513 60.0124 85.1411C60.5567 83.3497 61.033 81.7273 61.5433 80.0711C58.4474 81.5583 55.5216 83.1469 52.4598 84.3299C49.3639 85.5129 46.1319 86.2902 42.866 87C49.6701 82.5385 55.2835 76.9954 59.8423 70.3369C59.5361 72.0606 59.2299 73.8182 58.8897 75.6096C63.3804 71.9254 65.6598 67.8357 66.8845 61.3462Z" fill="#FF9500"/>
<path d="M4.15051 49.8206C8.50515 42.5199 27.1825 34.9488 34.7691 36.9092C30.9588 39.5456 26.8763 42.2833 22.7258 45.1225C24.733 46.2041 26.9103 47.3871 29.0536 48.5363C20.7526 48.0293 12.5196 48.0969 4.15051 49.8206Z" fill="#FF9500"/>
<path d="M32.6257 5.91527C38.1711 1.45373 46.7783 2.29872 51.9494 7.63905C53.6845 9.39662 53.7865 9.63322 53.5144 11.188C48.3432 8.61923 46.0979 8.38264 42.8319 10.2078C44.0226 10.6472 45.0433 11.0528 45.9618 11.3908C43.5463 12.1344 41.0628 12.6076 38.8515 13.6554C35.0412 15.4467 30.7206 13.554 29.7 9.12623C33.068 9.86982 36.2999 9.83602 39.8041 8.07844C37.1845 7.26725 35.0072 6.62506 32.6257 5.91527Z" fill="#FF9500"/>
<path d="M74.4031 70.3706C78.0773 67.3286 78.0773 67.3286 77.0227 66.0442C77.6691 65.5372 78.3155 65.0302 79.1319 64.4218C76.4103 62.3601 75.0835 59.8251 76.2062 56.0396C79.6082 61.1771 84.5412 60.9743 89.7804 60.6701C89.9165 63.4416 88.9639 65.8752 86.9227 67.8018C83.3165 71.2155 78.8598 70.9113 74.4031 70.3706Z" fill="#FF9500"/>
<path d="M57.0526 18.1502C53.1742 16.5617 51.7113 16.8659 49.3299 19.7388C50.3165 19.6374 51.065 19.5698 52.0856 19.4684C49.3979 22.4428 48.8196 25.6199 50.3165 29.1689C48.6155 28.6281 47.1526 26.9719 46.4722 24.8087C45.5876 21.8344 46.0299 18.9952 47.799 16.4603C50.0103 13.2493 53.1742 13.1817 55.6577 16.1223C56.134 16.6293 56.4402 17.2376 57.0526 18.1502Z" fill="#FF9500"/>
<path d="M96.5164 47.2181C95.6999 48.4349 94.9855 49.4826 94.2711 50.5304C94.135 50.4628 93.9989 50.3952 93.8628 50.3614C93.8628 49.2799 93.8628 48.1983 93.8628 47.2181C91.4473 47.3533 89.1339 47.4885 86.7525 47.6237C86.4463 48.5363 86.0721 49.6178 85.6638 50.8008C84.3711 50.1586 83.7587 49.0771 84.0649 47.9279C84.235 47.2857 85.1875 46.6435 85.936 46.3731C89.4401 45.0549 92.8762 45.2915 96.5164 47.2181Z" fill="#FF9500"/>
<path d="M98.4897 35.9966C99.4763 39.8835 99.3062 43.1621 96.2443 46.0012C95.5639 45.5957 94.8154 45.0887 94.2711 44.7507C94.8154 42.7565 95.1557 40.8975 95.9041 39.1737C96.3464 38.126 97.435 37.2472 98.4897 35.9966Z" fill="#FF9500"/>
<path d="M81.7175 55.8032C82.3299 56.7496 82.8402 57.5608 83.3165 58.3044C84.4052 58.372 85.4938 58.2706 86.4464 58.541C87.9093 58.9466 89.032 58.71 89.8485 57.0876C90.2227 59.4874 89.7804 60.0282 87.8412 59.9268C86.4464 59.8592 85.0175 59.7578 83.6227 59.724C81.1392 59.5888 80.4588 58.4058 81.7175 55.8032Z" fill="#FF9500"/>
<path d="M80.0505 47.7251C78.9959 49.7531 77.8732 51.9162 76.8526 53.9104C75.6959 52.0176 77.3289 48.6715 80.0505 47.7251Z" fill="#FF9500"/>
<path d="M88.6237 54.7216C89.5082 53.4711 90.2907 52.4233 91.0391 51.3755C91.2773 52.9641 90.7329 53.8091 88.6237 54.7216Z" fill="#FF9500"/>
</g>
<defs>
<clipPath id="clip0_416_139">
<rect width="99" height="87" fill="white"/>
</clipPath>
</defs>
</svg>
